name Run_500 03_newCOP3_v24.mot
datacolumns 19
datarows 62
range 0.11 0.171
DataType=double
version=3
OpenSimVersion=4.3-2021-08-27-4bc7ad9
endheader
time	R_ground_force_vx	R_ground_force_vy	R_ground_force_vz	R_ground_force_px	R_ground_force_py	R_ground_force_pz	L_ground_force_vx	L_ground_force_vy	L_ground_force_vz	L_ground_force_px	L_ground_force_py	L_ground_force_pz	R_ground_torque_x	R_ground_torque_y	R_ground_torque_z	L_ground_torque_x	L_ground_torque_y	L_ground_torque_z
0.11	0	0	0	0	0	0	-31.895151	138.07988	20.811754	0.926181	0	-0.371923	0	0	0	-0	6.199372	-0
0.111	0	0	0	0	0	0	-43.607838	172.570587	23.483284	0.928032	0	-0.376245	0	0	0	-0	5.264987	-0
0.112	0	0	0	0	0	0	-55.541744	208.437119	26.279861	0.929206	0	-0.379027	0	0	0	-0	4.34162	-0
0.113	0	0	0	0	0	0	-67.576904	245.588226	29.193319	0.929948	0	-0.380832	0	0	0	-0	3.431363	-0
0.114	0	0	0	0	0	0	-79.59994500000001	283.955872	32.214825	0.930382	0	-0.381966	0	0	0	-0	2.536286	-0
0.115	0	0	0	0	0	0	-91.502472	323.48111	35.33424	0.930577	0	-0.382608	0	0	0	-0	1.658432	-0
0.116	0	0	0	0	0	0	-103.180687	364.105347	38.539612	0.93057	0	-0.382873	0	0	0	-0	0.799801	-0
0.117	0	0	0	0	0	0	-114.53582	405.76532	41.81678	0.930381	0	-0.382841	0	0	0	0	-0.037654	0
0.118	0	0	0	0	0	0	-125.475037	448.389954	45.149097	0.93002	0	-0.382569	0	0	0	0	-0.852041	0
0.119	0	0	0	0	0	0	-135.912628	491.899261	48.517254	0.929488	0	-0.382103	0	0	0	0	-1.641538	0
0.12	0	0	0	0	0	0	-145.771423	536.204041	51.899178	0.928787	0	-0.381476	0	0	0	0	-2.404398	0
0.121	0	0	0	0	0	0	-154.984222	581.206665	55.270069	0.927912	0	-0.380719	0	0	0	0	-3.138967	0
0.122	0	0	0	0	0	0	-163.495178	626.802002	58.602509	0.92686	0	-0.379856	0	0	0	0	-3.843686	0
0.123	0	0	0	0	0	0	-171.261093	672.878967	61.86665	0.9256259999999999	0	-0.378909	0	0	0	0	-4.517107	0
0.124	0	0	0	0	0	0	-178.25238	719.3222050000001	65.03054	0.924207	0	-0.377897	0	0	0	0	-5.157895	0
0.125	0	0	0	0	0	0	-184.453766	766.013672	68.06049299999999	0.9226	0	-0.376837	0	0	0	0	-5.764843	0
0.126	0	0	0	0	0	0	-189.864685	812.83374	70.921539	0.920803	0	-0.375744	0	0	0	0	-6.336874	0
0.127	0	0	0	0	0	0	-194.499054	859.662842	73.577988	0.918818	0	-0.374633	0	0	0	0	-6.873058	0
0.128	0	0	0	0	0	0	-198.384842	906.382324	75.99400300000001	0.916646	0	-0.373518	0	0	0	0	-7.372607	0
0.129	0	0	0	0	0	0	-201.562897	952.874695	78.134247	0.914292	0	-0.372408	0	0	0	0	-7.834889	0
0.13	0	0	0	0	0	0	-204.085602	999.024536	79.964561	0.911761	0	-0.371317	0	0	0	0	-8.259434000000001	0
0.131	0	0	0	0	0	0	-206.014999	1044.718628	81.452652	0.909062	0	-0.370252	0	0	0	0	-8.645932	0
0.132	0	0	0	0	0	0	-207.42067	1089.845581	82.56881	0.906204	0	-0.369225	0	0	0	0	-8.994244999999999	0
0.133	0	0	0	0	0	0	-208.377396	1134.296997	83.286568	0.9031979999999999	0	-0.368242	0	0	0	0	-9.304399999999999	0
0.134	0	0	0	0	0	0	-208.96283	1177.966553	83.58337400000001	0.900057	0	-0.367311	0	0	0	0	-9.576601	0
0.135	0	0	0	0	0	0	-209.255066	1220.751587	83.441177	0.896794	0	-0.366438	0	0	0	0	-9.811218999999999	0
0.136	0	0	0	0	0	0	-209.330414	1262.552979	82.846962	0.893423	0	-0.365629	0	0	0	0	-10.008799	0
0.137	0	0	0	0	0	0	-209.26149	1303.276855	81.793228	0.889957	0	-0.364888	0	0	0	0	-10.170049	0
0.138	0	0	0	0	0	0	-209.115479	1342.835693	80.27834300000001	0.886412	0	-0.364218	0	0	0	0	-10.295847	0
0.139	0	0	0	0	0	0	-208.95285	1381.14978	78.306786	0.8828009999999999	0	-0.363622	0	0	0	0	-10.387228	0
0.14	0	0	0	0	0	0	-208.826431	1418.149048	75.889343	0.8791369999999999	0	-0.3631	0	0	0	0	-10.445381	0
0.141	0	0	0	0	0	0	-208.780838	1453.775269	73.04306800000001	0.875432	0	-0.362654	0	0	0	0	-10.471642	0
0.142	0	0	0	0	0	0	-208.852264	1487.983398	69.79125999999999	0.871698	0	-0.36228	0	0	0	0	-10.467482	0
0.143	0	0	0	0	0	0	-209.068527	1520.743164	66.163185	0.867945	0	-0.361979	0	0	0	0	-10.434503	0
0.144	0	0	0	0	0	0	-209.449341	1552.040649	62.193764	0.864182	0	-0.361746	0	0	0	0	-10.374421	0
0.145	0	0	0	0	0	0	-210.006744	1581.878784	57.923107	0.860417	0	-0.361577	0	0	0	0	-10.289062	0
0.146	0	0	0	0	0	0	-210.745621	1610.278076	53.39595	0.856656	0	-0.361468	0	0	0	0	-10.180339	0
0.147	0	0	0	0	0	0	-211.6642	1637.275879	48.660988	0.8529060000000001	0	-0.361413	0	0	0	0	-10.050248	0
0.148	0	0	0	0	0	0	-212.754623	1662.926025	43.770115	0.84917	0	-0.361404	0	0	0	0	-9.90085	0
0.149	0	0	0	0	0	0	-214.003433	1687.297485	38.777626	0.845452	0	-0.361437	0	0	0	0	-9.734256999999999	0
0.15	0	0	0	0	0	0	-215.391968	1710.472778	33.739311	0.841755	0	-0.361502	0	0	0	0	-9.552612999999999	0
0.151	0	0	0	0	0	0	-216.896866	1732.545532	28.711569	0.83808	0	-0.361592	0	0	0	0	-9.358088	0
0.152	0	0	0	0	0	0	-218.490356	1753.618286	23.750467	0.83443	0	-0.3617	0	0	0	0	-9.152851999999999	0
0.153	0	0	0	0	0	0	-220.140717	1773.800293	18.910818	0.830803	0	-0.361819	0	0	0	0	-8.939071	0
0.154	0	0	0	0	0	0	-221.812607	1793.203735	14.24528	0.8272	0	-0.361939	0	0	0	0	-8.718881	0
0.155	0	0	0	0	0	0	-223.467499	1811.942383	9.803493	0.82362	0	-0.362056	0	0	0	0	-8.494382	0
0.156	0	0	0	0	0	0	-225.064133	1830.12793	5.631271	0.820061	0	-0.362162	0	0	0	0	-8.267618000000001	0
0.157	0	0	0	0	0	0	-226.55899	1847.867676	1.769881	0.816522	0	-0.362251	0	0	0	0	-8.040569	0
0.158	0	0	0	0	0	0	-227.906891	1865.262695	-1.744601	0.813001	0	-0.362319	0	0	0	0	-7.815136	0
0.159	0	0	0	0	0	0	-229.061447	1882.405029	-4.881819	0.809494	0	-0.362361	0	0	0	0	-7.593125	0
0.16	0	0	0	0	0	0	-229.975769	1899.376343	-7.617562	0.805999	0	-0.362375	0	0	0	0	-7.376245	0
0.161	0	0	0	0	0	0	-230.603043	1916.246094	-9.934062000000001	0.802512	0	-0.362359	0	0	0	0	-7.166089	0
0.162	0	0	0	0	0	0	-230.897186	1933.070435	-11.820162	0.799031	0	-0.362311	0	0	0	0	-6.964135	0
0.163	0	0	0	0	0	0	-230.813538	1949.891479	-13.271367	0.795551	0	-0.362233	0	0	0	0	-6.77173	0
0.164	0	0	0	0	0	0	-230.309601	1966.736206	-14.289754	0.7920700000000001	0	-0.362124	0	0	0	0	-6.590091	0
0.165	0	0	0	0	0	0	-229.345734	1983.617065	-14.883767	0.788583	0	-0.361988	0	0	0	0	-6.420294	0
0.166	0	0	0	0	0	0	-227.885925	2000.531616	-15.067888	0.785087	0	-0.361828	0	0	0	0	-6.263275	0
0.167	0	0	0	0	0	0	-225.898575	2017.463501	-14.862202	0.781581	0	-0.361646	0	0	0	0	-6.119826	0
0.168	0	0	0	0	0	0	-223.357269	2034.382813	-14.291861	0.7780589999999999	0	-0.361449	0	0	0	0	-5.990596	0
0.169	0	0	0	0	0	0	-220.241501	2051.247803	-13.386469	0.774521	0	-0.36124	0	0	0	0	-5.876087	0
0.17	0	0	0	0	0	0	-216.537338	2068.006104	-12.179392	0.770964	0	-0.361025	0	0	0	0	-5.776659	0
0.171	0	0	0	0	0	0	-212.238007	2084.595947	-10.707013	0.767387	0	-0.36081	0	0	0	0	-5.692531	0
